<svg width="57" height="67" viewBox="0 0 57 67" fill="none" xmlns="http://www.w3.org/2000/svg">
<path d="M10.5731 25.5938C10.5615 25.7264 10.5469 25.9585 10.5323 26.29L10.5002 27.0525C10.4886 27.3178 10.4769 27.583 10.4652 27.8151C10.4535 28.0472 10.4448 28.2958 10.4331 28.5444C10.2814 31.9426 10.1035 35.2412 9.90501 38.4571C9.70375 41.6729 9.48197 44.8555 9.23988 48.0382C9.16987 48.9001 9.10275 49.7787 9.03274 50.6406C8.96268 51.5026 8.88974 52.348 8.81388 53.1437C8.7176 54.1382 8.63008 54.9503 8.55422 55.5806C8.47837 56.2268 8.37042 56.8237 8.23621 57.3539C7.99697 58.3157 7.67312 58.9783 7.26175 59.3432C7.11005 59.4756 6.95833 59.5916 6.81246 59.6584C6.66366 59.741 6.51486 59.8072 6.36606 59.8734C6.27271 59.9402 6.22895 60.089 6.23478 60.3543C6.24062 60.6197 6.24937 60.7855 6.26396 60.8517C6.28729 60.9841 6.38357 61.001 6.54696 60.9015C6.69283 60.8353 6.83871 60.7685 6.98751 60.6695C7.1363 60.5863 7.2851 60.4539 7.43097 60.2881C7.81609 59.8904 8.11951 59.2108 8.34708 58.2824C8.57465 57.3539 8.77888 55.9122 8.96268 53.9725C9.24277 51.0053 9.50826 47.4083 9.75922 43.1979C10.0072 38.9875 10.2027 35.1749 10.3427 31.7768C10.3543 31.495 10.3923 30.4673 10.4623 28.677C10.5294 26.9034 10.5673 25.8757 10.5731 25.5938ZM7.20341 2.12177H7.22966H7.23549C7.31718 2.12177 7.47182 2.22123 7.70522 2.40357C7.93863 2.60248 8.09617 2.71852 8.1837 2.78482C8.49879 3.05004 8.81096 3.29869 9.12605 3.4976C9.44114 3.69652 9.75623 3.92859 10.0713 4.16068C10.2289 4.29325 10.3835 4.4093 10.5382 4.50876C10.6928 4.60823 10.8504 4.72428 11.0079 4.85685C11.1129 4.95632 11.3404 5.13867 11.6964 5.40387C12.0495 5.66912 12.2828 5.90115 12.3937 6.10009C12.5483 6.39844 12.6388 6.87915 12.665 7.54221C12.6738 7.80746 12.6797 8.30475 12.6797 9.01749C12.6797 9.41537 12.6797 9.81318 12.6854 10.1778C12.6913 10.5591 12.6942 10.8906 12.6942 11.1724L12.703 13.3771C12.703 14.4048 12.703 15.3994 12.7058 16.3608C12.7088 17.3388 12.7117 18.3334 12.7117 19.3446V20.7038C12.7001 21.2342 12.6534 21.4995 12.5717 21.4995C12.3616 21.4995 12.1574 21.4332 11.9619 21.3006C11.7635 21.1679 11.5651 21.0519 11.3667 20.9856C11.3171 20.9856 11.2588 20.969 11.1917 20.9193C11.1216 20.8696 11.0808 21.0188 11.0633 21.3834C11.0429 21.7481 11.0283 22.2454 11.0196 22.8421C11.0108 23.4555 11.002 23.9528 10.9962 24.3341C10.9904 24.4832 10.9845 24.8313 10.9757 25.3618C10.9524 26.9034 10.9029 28.6273 10.8328 30.5336C10.7598 32.4564 10.6841 34.0975 10.6023 35.4568C10.5849 35.7551 10.5673 36.0535 10.5527 36.3353C10.5352 36.6171 10.5206 36.8823 10.5031 37.1475C10.4652 37.6779 10.4302 38.225 10.401 38.772C10.366 39.3687 10.3106 40.181 10.2376 41.1756C10.1617 42.1867 10.1064 42.9989 10.0655 43.5957C9.98966 44.64 9.91377 45.6843 9.83211 46.712C9.75045 47.7398 9.67457 48.7841 9.59868 49.8118L8.97727 57.4037C8.9335 57.9672 8.88683 58.5307 8.83722 59.0615C8.78763 59.6086 8.72344 60.0726 8.64175 60.4703C8.57173 60.7855 8.48712 61.001 8.38793 61.1001C8.28873 61.1996 8.19829 61.2992 8.1166 61.3654C7.99989 61.4984 7.8861 61.5974 7.77524 61.697C7.66438 61.7966 7.55059 61.8792 7.43681 61.9788C7.29677 62.0947 7.05753 62.3103 6.72201 62.6419C6.38649 62.9734 6.17352 63.1228 6.08015 63.1228C5.97512 63.1228 5.90801 62.957 5.87593 62.5921C5.84966 62.3437 5.83216 61.9788 5.82632 61.5148C5.80299 60.7193 5.77381 59.5424 5.74171 57.9672C5.70671 56.3926 5.68628 55.1823 5.67461 54.3537C5.6717 54.304 5.66294 53.8896 5.64835 53.1271L5.51707 45.8501C5.51123 45.6512 5.50248 45.4854 5.49081 45.3196C5.47914 45.1704 5.4733 45.0047 5.46747 44.8224C5.45579 44.8721 5.44412 45.0047 5.43537 45.2036C5.41495 45.5352 5.39161 45.8501 5.36535 46.1484C5.33618 46.4468 5.31284 46.7618 5.2895 47.0602C5.26615 47.3917 5.24865 47.6404 5.23699 47.7895C5.19905 48.3199 5.16112 48.8338 5.12612 49.3311C5.0911 49.8284 5.0561 50.3257 5.02108 50.823C4.9569 51.7181 4.88396 52.7293 4.79935 53.873C4.71474 55.0335 4.64764 56.0446 4.59512 56.9063C4.57179 57.2713 4.55428 57.5196 4.54261 57.6854C4.53385 57.7686 4.5251 57.901 4.51343 58.0668C4.47842 58.4645 4.46675 58.5975 4.48426 58.4317C4.42007 59.0615 4.36172 59.4258 4.30337 59.5254C4.25669 59.625 4.175 59.6912 4.05829 59.7246C3.94159 59.7744 3.85406 59.8072 3.78988 59.8406C3.60316 59.973 3.42519 60.0228 3.26181 60.0228C3.11593 60.0228 3.01673 60.0562 2.96714 60.1059C2.91462 60.1557 2.83876 60.1886 2.73373 60.2219C2.71623 60.2219 2.69873 60.2219 2.68414 60.2219C2.66663 60.2219 2.65496 60.205 2.64329 60.205C2.62287 60.2219 2.60828 60.2383 2.60245 60.2548C2.59369 60.2717 2.5791 60.2717 2.55868 60.2717C2.38363 60.2881 2.24067 60.3045 2.13272 60.3379C2.02185 60.3707 1.92266 59.8734 1.83221 58.8125C1.7972 58.4317 1.76511 58.017 1.73593 57.5694C1.70676 57.1383 1.67759 56.7077 1.65133 56.31C1.61923 55.9122 1.58714 55.4975 1.55797 55.0997C1.52587 54.7019 1.4967 54.2709 1.47336 53.8067C1.41501 52.8287 1.35374 51.8507 1.29247 50.8727C1.22829 49.9113 1.16993 48.9167 1.11158 47.9221L0.991962 45.9827C0.939451 45.1041 0.884012 44.2422 0.828583 43.3802C0.770226 42.5182 0.72355 41.6397 0.6827 40.7115L0.446384 34.9594C0.393863 33.567 0.32968 31.5945 0.253826 29.0417C0.177972 26.4889 0.128369 24.4003 0.105036 22.809L0.0495985 19.6429C0.0379281 19.0131 0.0262577 18.3997 0.0145873 17.7698C0.00291787 17.1399 0 16.51 0 15.8801C0 15.101 0.0846107 14.3385 0.256744 13.5926L0.525156 12.6312C0.554335 12.5317 0.60101 12.3825 0.665203 12.2001C1.01531 11.2056 1.31581 10.4597 1.56964 9.92923C1.72426 9.59767 1.83221 9.38221 1.89056 9.26616C2.04811 8.96782 2.21149 8.66941 2.38071 8.35448C2.54701 8.05608 2.70748 7.72457 2.86502 7.39301C2.93504 7.24387 3.04591 7.02835 3.1947 6.76316C3.24722 6.66369 3.29973 6.56422 3.35225 6.46475C3.40477 6.36528 3.4602 6.24929 3.51563 6.14982C3.892 5.4536 4.22459 4.87343 4.51343 4.39272C4.56303 4.3264 4.6243 4.27667 4.69723 4.26009C4.76726 4.26009 4.80518 4.44245 4.80518 4.84027C4.80518 5.63596 4.77893 6.53106 4.72933 7.52564C4.67682 8.52021 4.63597 9.39879 4.60387 10.1613C4.49884 12.5151 4.42007 14.6866 4.36172 16.6758C4.33838 17.372 4.32087 18.0682 4.30921 18.7478C4.29754 19.444 4.28295 20.1236 4.26544 20.8198L4.21001 27.6493C4.21001 27.8814 4.21293 28.0803 4.21877 28.246C4.22459 28.4118 4.22751 28.6107 4.22751 28.8096L4.23626 29.9866C4.2421 30.9977 4.25377 31.7768 4.26544 32.3404C4.27711 32.904 4.2917 33.6333 4.31212 34.545L4.35297 36.7994H4.37631C4.37631 36.6999 4.39382 36.2524 4.43174 35.4236C4.48718 34.3627 4.53677 33.2853 4.58054 32.1746C4.62138 31.064 4.66806 29.9534 4.72058 28.8428C4.75851 27.9808 4.79351 27.0857 4.82853 26.1906C4.86062 25.2955 4.90146 24.4169 4.94815 23.5218C5.01233 22.2951 5.0561 21.5824 5.08527 21.3669C5.11153 21.1514 5.20781 21.0354 5.37702 21.0354C5.4062 21.0354 5.42954 21.0354 5.44704 21.0188C5.46455 21.0022 5.48789 20.9856 5.51707 20.9856L5.79715 20.9359H5.93719C5.98388 20.9193 6.04806 20.9027 6.13267 20.8696C6.21436 20.853 6.27271 20.9359 6.30772 21.1348C6.34857 21.4166 6.38941 22.0465 6.42442 23.0245C6.45944 24.0191 6.48569 24.6821 6.50319 25.0468C6.56446 26.6381 6.62282 28.2295 6.67533 29.8208C6.72785 31.4121 6.78911 33.0034 6.8533 34.5616C6.87664 35.1749 6.89706 35.7717 6.91749 36.3519C6.93499 36.9486 6.95833 37.5288 6.98751 38.109C6.99918 38.4073 7.00501 38.6063 7.01085 38.6726C7.02543 38.9875 7.03418 39.1699 7.0371 39.2361H7.05461C7.05461 38.8715 7.05461 38.5399 7.06044 38.225C7.06336 37.9266 7.06628 37.5785 7.0692 37.2138L7.09546 35.2578C7.09546 34.9594 7.09837 34.6113 7.10421 34.2135C7.10713 33.7328 7.11295 33.2521 7.12171 32.7548C7.13046 32.2575 7.1363 31.7602 7.1363 31.2629C7.1363 31.3624 7.13338 31.1469 7.12754 30.6496C7.12754 30.6828 7.13046 30.4838 7.1363 30.0363C7.13921 29.4727 7.14505 28.8594 7.15089 28.1963C7.15672 27.5332 7.16256 26.92 7.16256 26.3398V25.9088V25.4446C7.16256 25.2955 7.15964 25.1628 7.15672 25.0634C7.15089 24.9639 7.15089 24.8313 7.1538 24.649C7.1538 24.1185 7.14797 23.5715 7.14213 22.9913C7.13338 22.4112 7.12754 21.8476 7.12754 21.3171L7.11879 20.5215C7.11587 19.9911 7.11005 19.444 7.09838 18.9136C7.0867 18.3831 7.08087 17.8361 7.07795 17.2891C7.07503 17.1399 7.07211 17.0073 7.07211 16.8913C7.0692 16.7918 7.0692 16.6426 7.0692 16.4768C7.06628 15.9796 7.05753 15.4657 7.04585 14.9187C7.03418 14.3716 7.02543 13.8412 7.0196 13.3439C7.00793 12.482 6.98751 11.4377 6.95833 10.211C6.9379 9.44852 6.92041 8.68599 6.90873 7.90693C6.89706 7.12782 6.88247 6.3487 6.8708 5.55307C6.8533 4.69112 6.84454 4.1441 6.84746 3.94517C6.84746 3.18265 6.86205 2.71852 6.89123 2.55275C6.94082 2.27095 7.04585 2.12177 7.20341 2.12177ZM6.92915 41.9215C6.92332 41.7558 6.88831 40.9103 6.82413 39.3853C6.75702 37.8769 6.71909 36.9984 6.71034 36.7331C6.63449 34.976 6.5557 33.3018 6.47985 31.6774C6.40108 30.0695 6.31355 28.3952 6.22019 26.6713L6.0218 22.9913C5.98096 22.3117 5.92552 22.1957 5.84966 22.6598C5.82049 22.8256 5.82632 23.2234 5.86134 23.8533C5.98388 26.1906 6.10349 28.4284 6.22019 30.5833C6.33398 32.7382 6.46818 34.9594 6.6199 37.2635L6.84746 40.7446C6.89706 41.5071 6.92332 41.9049 6.92915 41.9215ZM1.87598 53.1602C1.95475 54.3206 2.00435 55.0663 2.02769 55.4149C2.02185 55.2655 1.98392 54.5195 1.90807 53.1934C1.83221 51.8673 1.78846 51.0385 1.77095 50.707C1.48503 45.4191 1.2487 40.3965 1.06782 35.6225C0.88693 30.8485 0.714797 25.743 0.554335 20.2728C0.539745 19.8584 0.525156 19.4275 0.513485 18.9799C0.498896 18.5323 0.487224 18.0847 0.475563 17.6206C0.466809 17.4052 0.460974 17.1896 0.455138 16.9575C0.449302 16.7255 0.443466 16.51 0.437631 16.278C0.408452 15.5983 0.353023 15.4823 0.268415 15.9132C0.242155 16.0459 0.242155 16.4768 0.265497 17.2062C0.358859 20.621 0.449302 23.7373 0.539745 26.5387C0.714797 32.0089 0.895683 36.5673 1.08824 40.1976C1.2808 43.8444 1.54338 48.1542 1.87598 53.1602ZM12.0844 7.55879C12.0436 7.49248 11.9123 7.37643 11.6847 7.19413C11.4571 7.02835 11.3113 6.89572 11.2471 6.82947C10.8212 6.48133 10.3923 6.11667 9.96635 5.75201C9.53744 5.38729 9.10852 5.07236 8.6826 4.77396C8.52213 4.67454 8.3004 4.52534 8.02032 4.30983C7.74023 4.11095 7.52725 4.19378 7.38138 4.59165C7.28218 4.87342 7.22091 5.4536 7.20049 6.3487C7.16548 7.74115 7.16839 9.43194 7.21507 11.4045C7.26175 13.3937 7.30259 15.0679 7.34053 16.4603C7.3522 17.057 7.37554 17.3886 7.40471 17.4549C7.48932 17.7367 7.536 17.604 7.54767 17.0404C7.54767 16.8747 7.54184 16.4934 7.52433 15.8801C7.50682 15.2834 7.49515 14.8524 7.48932 14.6203C7.46598 13.8081 7.44556 12.9793 7.42805 12.1505C7.41055 11.3216 7.39596 10.4763 7.39013 9.63083C7.38429 9.1667 7.37846 8.53679 7.37554 7.74115C7.37262 6.94546 7.39013 6.31555 7.42513 5.868C7.44264 5.61938 7.49807 5.47018 7.59143 5.42044C7.77815 5.35413 8.06699 5.43702 8.46086 5.70227C8.85181 5.96747 9.16399 6.14982 9.39155 6.24929C9.75922 6.41502 10.1297 6.59738 10.509 6.79631C10.8882 6.99519 11.2646 7.17755 11.6381 7.34333C11.7081 7.37643 11.784 7.42617 11.8598 7.4759C11.9357 7.52564 12.0085 7.55879 12.0844 7.55879ZM15.4834 58.15L15.4863 58.017C15.3754 57.9842 15.0924 58.1166 14.6314 58.4148C14.1704 58.7135 13.8554 58.9121 13.6891 58.9783C13.5315 59.0779 13.374 59.161 13.2164 59.2272C13.0589 59.3099 12.9013 59.3432 12.7497 59.3099C12.5746 59.2934 12.4638 58.8623 12.4229 58.034C12.382 57.2051 12.3528 56.0774 12.3354 54.6521C12.3003 52.0993 12.2712 49.5798 12.2449 47.0602C12.2187 44.5405 12.1983 41.9878 12.1807 39.3853L12.1048 27.5498C12.0932 27.0857 12.0553 26.8205 11.9911 26.721C11.9269 26.6215 11.9036 27.2183 11.9152 28.4781C11.924 30.0695 11.9357 32.3238 11.9502 35.2412C11.9619 38.1587 11.9824 41.1756 12.0085 44.2588C12.032 47.3585 12.064 50.2594 12.1048 52.9448C12.1428 55.6299 12.1924 57.5366 12.2566 58.6637C12.315 59.8242 12.4024 60.5037 12.5162 60.6859C12.6271 60.8681 12.7701 60.8681 12.9393 60.7023C13.0793 60.5699 13.2194 60.4375 13.3594 60.2881C13.4994 60.1388 13.6395 59.99 13.7825 59.8406C13.9225 59.7076 14.0655 59.5588 14.2114 59.4094C14.3543 59.277 14.4973 59.1277 14.6431 58.9619C14.7598 58.8623 14.9028 58.6965 15.0691 58.4815C15.2324 58.2659 15.3725 58.15 15.4834 58.15ZM14.9261 10.5094C14.9261 10.5426 14.9261 10.5757 14.9291 10.5922L14.9261 10.4597V10.4763V10.4928V10.5094ZM14.9583 24.8811V24.9473V24.9805V24.8811ZM14.9553 24.6656V24.649V24.5661V24.5495V24.6324V24.6656ZM14.9465 23.8533V23.8367V23.787V23.8533ZM14.9465 23.6047L14.9436 23.4555V23.4389L14.9407 23.356V23.1737V23.1903V23.3394L14.9465 23.6047ZM14.9378 23.0908V23.0742V22.9913V23.0908ZM14.9291 22.4609V22.378V22.3117L14.9261 22.2785L14.9291 22.4609ZM14.9232 21.9139V21.8973L14.9203 21.7315L14.9232 21.9139ZM14.9203 21.6321L14.9173 21.5658V21.599L14.9203 21.6321ZM14.6723 7.82404V7.84062V7.8572V7.87378L14.6752 7.89035L14.6723 7.82404ZM14.9173 9.81318V9.71372V9.79661V9.81318ZM14.9116 9.34905L14.9086 9.23301V9.24959L14.9116 9.34905ZM10.6723 24.3837C10.6723 22.9913 10.6753 21.6818 10.687 20.4718C10.6986 19.2617 10.7045 17.9356 10.7045 16.51C10.7045 14.5872 10.719 13.2776 10.7482 12.5649C10.7774 11.8686 10.862 11.3548 10.9992 11.0233C11.2384 10.4597 11.4834 9.94581 11.7373 9.44852C11.9881 8.95124 12.2449 8.47047 12.5017 7.98977L14.3981 4.29325C14.7657 3.56391 14.9553 3.56391 14.9728 4.27667C14.9903 5.00605 15.0107 6.71342 15.037 9.39879C15.0428 10.095 15.0457 10.7414 15.0457 11.3714C15.0457 12.0013 15.0516 12.6478 15.0575 13.3108C15.0575 13.6755 15.0603 13.9738 15.0662 14.2391C15.0691 14.5043 15.072 14.8524 15.072 15.3L15.1128 21.0022C15.1187 21.5326 15.1245 22.1294 15.1275 22.7924C15.1303 23.4555 15.1362 24.0688 15.1479 24.649C15.2179 29.2738 15.3375 33.5836 15.5097 37.5785C15.5738 39.1864 15.6672 41.043 15.7897 43.1647C15.9823 46.5795 16.2127 49.9278 16.4812 53.2265C16.7204 56.2104 16.8284 58.0006 16.805 58.5975C16.7817 59.1939 16.4549 59.7574 15.8276 60.3045C15.7401 60.4041 15.6497 60.5037 15.5563 60.6033C15.463 60.7193 15.3725 60.8183 15.285 60.8851C14.9407 61.233 14.4681 61.697 13.87 62.2775C13.2719 62.8739 12.8226 63.1556 12.5221 63.1556C12.3646 63.1556 12.2244 63.0894 12.0961 62.9237C11.9677 62.7579 11.8889 61.7632 11.8628 59.9402L11.8073 50.5909C11.8073 48.6847 11.8014 47.0436 11.7898 45.6843C11.7781 44.3251 11.7722 42.7669 11.7722 41.043C11.7722 39.4848 11.7606 37.4128 11.7373 34.7937C11.7139 32.1746 11.6964 30.1192 11.6847 28.6273C11.6497 25.2126 11.5797 23.9693 11.4805 24.8645C11.3814 25.7596 11.1567 26.2072 10.8094 26.2072C10.7307 26.2072 10.687 26.1408 10.6811 25.9751C10.6753 25.8093 10.6723 25.2789 10.6723 24.3837ZM16.2274 24.6821C16.1866 24.3175 16.166 24.1185 16.166 24.0854C16.1369 23.5218 16.1019 22.146 16.0552 19.9911C16.0085 17.8361 15.9764 16.3608 15.9589 15.5983C15.9239 14.1396 15.9211 13.2445 15.9501 12.9129C15.9793 12.5814 16.1311 12.1505 16.4024 11.6034L17.8291 9.06723C17.9049 8.96782 17.9895 8.81861 18.0771 8.65283C18.4301 7.98976 18.786 7.37643 19.1449 6.79631C19.5009 6.21614 19.8597 5.58623 20.2157 4.92316L20.6941 4.09437C20.8283 3.89543 21.0122 3.58049 21.2455 3.1495C21.4789 2.71852 21.6656 2.5859 21.8057 2.75167C21.8232 3.18265 21.8203 3.59706 21.8028 3.9949C21.7852 4.39272 21.7677 4.80711 21.7503 5.22156C21.7385 5.48676 21.724 5.78516 21.7095 6.08351C21.6948 6.39844 21.6832 6.69684 21.6715 6.96204C21.5052 10.7249 21.3856 14.5209 21.3155 18.3334C21.2047 23.9362 21.1493 29.5556 21.1493 35.2081L21.1667 38.3576C21.1667 38.6228 21.1638 38.9046 21.1638 39.1864C21.1638 39.4682 21.1638 39.7335 21.1667 39.9986C21.1667 40.2804 21.1667 40.5125 21.1726 40.6783C21.1784 40.8606 21.1814 41.1093 21.1814 41.4242C21.4526 41.4242 21.7299 41.3247 22.0158 41.0927L22.5643 40.8606C22.6168 40.8606 22.6605 40.844 22.7013 40.8109C22.7423 40.7778 22.786 40.7612 22.8327 40.7612C22.8852 40.7612 22.9756 40.728 23.1011 40.6286C23.2236 40.5457 23.2878 40.3633 23.2878 40.0815C23.2878 39.9986 23.2441 39.4682 23.1565 38.4902C23.069 37.5122 23.0194 36.932 23.0019 36.7331C22.8356 34.9429 22.7393 33.8654 22.7131 33.4676C22.6868 33.0863 22.8151 32.5559 23.0953 31.8928C23.3403 31.2961 23.5853 30.6828 23.8304 30.0529C24.0755 29.423 24.3236 28.8262 24.5773 28.246C24.5948 28.2129 24.6648 28.0472 24.7874 27.7322C24.977 27.268 25.0938 27.268 25.1375 27.699C25.1813 28.13 25.2542 29.0583 25.3534 30.4673C25.4088 31.2629 25.4701 32.042 25.5372 32.788C25.6043 33.5339 25.6743 34.2798 25.7444 35.0423C25.8727 36.5342 26.0274 37.9432 26.2082 39.2858C26.2229 39.4185 26.2433 39.6008 26.2696 39.7997L26.7363 43.1647C26.783 43.4962 26.8326 43.7946 26.8793 44.093C26.9259 44.3914 26.9755 44.6897 27.0222 45.0047C27.314 46.9773 27.4861 48.1211 27.5328 48.436C27.5795 48.7675 27.4716 49.8284 27.2061 51.6186L26.8939 53.6741C26.8706 53.873 26.8472 54.0222 26.8239 54.1382C26.8006 54.2543 26.7743 54.4035 26.751 54.6024C26.751 54.6024 26.7276 54.7517 26.678 55.0499L25.8378 60.6033C25.7852 60.9343 25.7356 61.2828 25.686 61.6144C25.6364 61.9623 25.5839 62.2775 25.5284 62.5757C25.4351 63.1058 25.3534 63.3548 25.2776 63.3548C25.155 63.3548 24.9916 63.1556 24.7903 62.7579C24.5861 62.3601 24.4256 62.045 24.3031 61.813C24.2273 61.6806 24.1543 61.5646 24.0785 61.4316C24.0026 61.2992 23.9267 61.1668 23.8508 61.0175C23.4016 60.1886 22.9523 59.4592 22.5029 58.8125C22.4213 58.7135 22.3425 58.5975 22.2696 58.4979C22.1966 58.3983 22.1207 58.2824 22.045 58.1828C21.8115 57.9174 21.6889 57.7686 21.6773 57.7352C21.6656 57.7188 21.5723 57.9508 21.3973 58.4481C21.2747 58.7797 20.9538 59.4926 20.4315 60.5863C19.9093 61.6806 19.568 62.3935 19.4074 62.7415C19.3258 62.9072 19.212 63.1556 19.0603 63.4872C18.9086 63.8188 18.8007 63.7859 18.7364 63.3712C18.6897 63.0894 18.6518 62.7081 18.6226 62.2277C18.5934 61.7632 18.573 61.3326 18.5556 60.9513C18.5438 60.7685 18.5293 60.5535 18.5118 60.2881C18.4942 60.0392 18.4855 59.8072 18.4855 59.6086C18.3689 59.973 18.2521 60.3209 18.1354 60.6525C18.0158 60.9841 17.902 61.349 17.7941 61.7134C17.6716 62.1117 17.581 62.2939 17.5257 62.2939C17.479 62.2939 17.4265 61.9623 17.3681 61.2658C17.3098 60.5863 17.2747 60.1223 17.2602 59.8904L16.8167 54.6521C16.7817 54.2709 16.7437 53.8399 16.7058 53.3592C16.6679 52.895 16.6504 52.3646 16.6504 51.7678C16.6504 51.254 16.6796 50.6738 16.7437 50.0107C16.808 49.3643 16.8692 48.8504 16.9305 48.4857C17.0268 47.9221 17.158 47.2756 17.3243 46.5463C17.4906 45.8169 17.6424 45.3528 17.7795 45.1539C17.7591 44.7229 17.7416 44.2919 17.7269 43.8278C17.7124 43.3802 17.6978 42.9161 17.6832 42.4353C17.6365 41.0595 17.5986 39.6671 17.5694 38.2581C17.5402 36.8657 17.5081 35.4568 17.479 34.0312C17.4498 32.8377 17.4265 31.4121 17.4031 29.7545C17.3798 28.1134 17.339 26.7376 17.2747 25.627C17.2514 25.196 17.2194 24.8148 17.1843 24.5164C17.1202 24.0522 17.0296 23.903 16.9188 24.0688C16.805 24.2346 16.7058 24.3506 16.6183 24.4169C16.5658 24.45 16.5016 24.5164 16.4229 24.5827C16.3441 24.649 16.2799 24.6821 16.2274 24.6821ZM16.3819 20.9193C16.3178 20.9193 16.2886 21.1017 16.2886 21.4663C16.2886 21.831 16.3178 22.0134 16.3819 22.0134C16.5103 22.0134 16.7 22.0299 16.9509 22.0631C17.2018 22.0962 17.3623 22.4443 17.4323 23.1074C17.4906 23.7207 17.5577 25.428 17.6306 28.2295C17.7036 31.0474 17.7561 32.9537 17.7912 33.9648C17.8612 36.2524 17.9283 38.5234 17.9954 40.7943C18.0624 43.0653 18.1325 45.3362 18.2026 47.5906C18.1792 46.4634 18.1471 44.6234 18.1063 42.1038C18.0654 39.5843 18.0158 36.9818 17.9604 34.2964C17.9049 31.611 17.8465 29.1411 17.7853 26.8868C17.7212 24.6324 17.6598 23.2069 17.6016 22.577C17.5023 21.6155 17.3185 21.0851 17.0501 21.0188C16.7817 20.9525 16.557 20.9193 16.3819 20.9193ZM22.3658 56.061C22.3046 55.9614 22.2637 56.0774 22.2462 56.409C22.2229 56.7405 22.2404 56.9725 22.3046 57.0891C22.608 57.6854 23.1186 58.6637 23.8363 60.0064C24.554 61.349 25.0587 61.7468 25.3534 61.2161C25.5227 60.9179 25.7035 60.1223 25.8961 58.8125C26.0886 57.5196 26.2462 56.4588 26.3688 55.6632C26.5145 54.6855 26.6634 53.7073 26.8151 52.7127L27.2644 49.7621C27.1185 50.6075 26.9726 51.4529 26.8267 52.2983C26.6809 53.1437 26.5379 53.9725 26.3921 54.8015C26.2696 55.4975 26.0945 56.5419 25.8669 57.901C25.6393 59.2601 25.4497 60.0392 25.3038 60.2383C25.0295 60.6361 24.5424 60.1721 23.8422 58.8623C23.1419 57.5694 22.6517 56.6245 22.3658 56.061ZM23.2149 37.5951C23.2441 37.9266 23.2878 37.9929 23.3432 37.794C23.3957 37.6282 23.4074 37.3796 23.3782 37.0647C23.3433 36.7331 23.2849 36.1695 23.209 35.3739C23.1302 34.5782 23.1273 33.9814 23.2002 33.6002C23.2236 33.4676 23.4891 32.6885 23.9967 31.2629C24.5015 29.8374 24.7991 28.9754 24.8895 28.7102C24.6853 29.108 24.4752 29.5059 24.2652 29.9037C24.0551 30.3015 23.8508 30.7159 23.6525 31.1303C23.2441 31.9923 23.0194 32.8046 22.9786 33.5339C22.9377 34.2798 23.0165 35.6391 23.2149 37.5951ZM19.4774 6.94546C19.4133 7.06151 19.3929 7.2936 19.4133 7.6251C19.4308 7.97319 19.4688 8.08923 19.5329 7.98977C19.6496 7.79088 19.9647 7.27702 20.4724 6.43159C20.98 5.58623 21.2514 5.56965 21.2863 6.36528C21.2951 6.59738 21.2718 7.90693 21.2193 10.2773C21.1638 12.6478 21.1318 14.1562 21.123 14.8026C21.1026 15.963 21.0851 17.1233 21.0675 18.2837C21.05 19.444 21.0355 20.5878 21.0208 21.7481C21.0675 20.0574 21.1142 18.3666 21.1638 16.6426C21.2134 14.9352 21.2689 13.2279 21.3301 11.5371C21.3534 10.8078 21.3973 9.73029 21.4585 8.27159C21.5197 6.81289 21.4936 5.80168 21.3826 5.22156C21.2397 4.52534 20.9334 4.5585 20.4636 5.32098C19.9939 6.08351 19.6642 6.63053 19.4774 6.94546ZM28.554 59.5588L28.5511 59.7076L28.6415 59.7908L28.554 59.5588ZM36.1716 38.8051V39.5511C36.1716 41.4408 36.0929 43.3305 35.9353 45.2036C35.7778 47.0933 35.5998 48.7344 35.4014 50.1599L35.0921 52.1988L34.6633 54.4532C33.896 57.8682 33.0294 60.1059 32.0637 61.1996C31.8887 61.3988 31.7019 61.581 31.4978 61.7134C31.3693 61.813 31.1914 61.929 30.9609 62.0619C30.7275 62.1943 30.5554 62.2775 30.4387 62.2775C30.2957 62.3103 30.1644 62.3437 30.0448 62.3765C29.9252 62.4099 29.7939 62.4263 29.648 62.4263H28.6327C28.3585 62.3935 28.1134 62.3103 27.9034 62.1609C27.8158 62.1117 27.5912 61.929 27.2294 61.6308C26.8676 61.3326 26.6517 61.0837 26.5788 60.9179C26.4825 60.7357 26.4241 60.3379 26.4037 59.741C26.3921 59.4592 26.3833 58.4147 26.3804 56.6081C26.3745 54.8179 26.3745 53.7238 26.3745 53.326C26.3745 53.1271 26.3745 52.9614 26.3804 52.8453C26.3833 52.7293 26.3862 52.5469 26.3862 52.3149V51.7844V51.2208L26.3979 49.1156C26.3979 48.2205 26.4329 47.69 26.5088 47.5077C26.5379 47.4414 26.5904 47.3917 26.6722 47.3585C26.751 47.3254 26.8122 47.2922 26.853 47.2922C26.9755 47.2922 27.1039 47.2922 27.2352 47.2922C27.2936 47.2922 27.3577 47.2756 27.4277 47.2259C27.4979 47.1762 27.5766 47.1431 27.6641 47.1431C27.6641 46.6457 27.6408 46.0656 27.597 45.4357L27.2848 41.0264C27.1594 39.1699 27.0426 37.0315 26.9377 34.5782C26.8326 32.1415 26.7451 29.9202 26.6751 27.9311L26.5117 22.6267C26.5059 22.5272 26.4941 22.2454 26.4825 21.8144C26.4708 21.3834 26.4445 21.1679 26.4096 21.1679C26.3366 21.1679 26.2257 21.284 26.0741 21.4995C25.9223 21.7315 25.8056 21.8973 25.721 22.0134C25.5401 22.2785 25.4264 22.3283 25.3855 22.146C25.3417 21.9802 25.3038 21.3834 25.2746 20.3557C25.2367 19.0131 25.2017 17.6538 25.1696 16.278C25.1375 14.9187 25.1229 13.5263 25.1229 12.1339C25.1229 11.4377 25.2192 10.957 25.4117 10.7249C25.6043 10.4928 25.7619 10.327 25.8902 10.211C26.0945 10.0452 26.2082 9.63083 26.2286 8.93466C26.2345 8.66941 26.2286 8.23844 26.2112 7.6251C26.1937 7.01177 26.1849 6.49791 26.1849 6.10009C26.1849 5.66912 26.2549 5.28782 26.4008 4.92316C26.5467 4.57508 26.6547 4.3264 26.7276 4.17726C26.8384 3.97832 26.9435 3.74625 27.0485 3.4976C27.1506 3.24896 27.2557 3.00032 27.3607 2.73509L27.9879 1.29295C28.0697 1.12719 28.1893 0.878548 28.3409 0.530442C28.4927 0.182342 28.6123 0 28.694 0C28.7378 0 28.7727 0.232071 28.7961 0.696206C28.8194 1.16034 28.837 1.45872 28.8457 1.62448C28.869 2.22123 28.9011 3.16607 28.939 4.44245C28.9741 5.73543 29.0207 6.46475 29.0733 6.66369C29.1141 6.84605 29.2074 6.96204 29.3533 6.99519C29.4992 7.02835 29.6014 7.04493 29.6626 7.04493C29.7151 7.04493 29.7676 7.07808 29.8202 7.11124C29.8727 7.1444 29.9252 7.17755 29.9718 7.17755L30.4854 7.39301C30.7392 7.45932 31.0514 7.74115 31.4219 8.22186C31.7925 8.71914 32.087 9.18327 32.3029 9.61425C32.408 9.84634 32.5102 10.1115 32.6094 10.3768C32.7086 10.6586 32.8077 10.9404 32.9069 11.2056C33.1199 11.8189 33.3241 12.5151 33.5226 13.2942C33.7209 14.0899 33.9134 14.8855 34.1002 15.7144L34.4503 17.4549C34.602 18.3168 34.7129 18.9633 34.7829 19.3611C34.8529 19.759 34.955 20.422 35.0892 21.3503C35.2409 22.4112 35.3868 23.7207 35.5298 25.2623C35.6727 26.8039 35.7836 28.2129 35.8594 29.5059C35.9324 30.7656 35.9995 32.0586 36.0608 33.4013C36.1133 34.5948 36.1425 35.5396 36.1541 36.2358C36.1659 36.932 36.1716 37.794 36.1716 38.8051ZM29.9718 23.8864C29.9602 23.7373 29.969 23.903 30.001 24.3837C30.0594 25.2457 30.1324 26.174 30.2169 27.1686C30.2987 28.1631 30.3775 29.108 30.4475 29.97L30.8501 35.092C30.8763 35.4236 30.8997 35.7385 30.923 36.0369C30.9463 36.3353 30.9726 36.6502 31.0018 36.9486C31.0164 37.1309 31.0426 37.4459 31.0805 37.8935C31.1156 38.341 31.136 38.6394 31.1418 38.8051C31.241 38.5068 31.3519 38.0095 31.4686 37.3299C31.7428 35.722 31.8245 33.882 31.7166 31.8265C31.6057 29.771 31.4219 28.13 31.1593 26.9034C30.8501 25.5275 30.4562 24.5164 29.9718 23.8864ZM35.2789 46.0822C35.4014 44.8555 35.489 43.5128 35.5443 42.0375C35.6553 38.9875 35.6144 35.7385 35.4247 32.3238C35.3431 30.9314 35.2439 29.6219 35.1243 28.4284C35.0046 27.2349 34.8821 26.1077 34.7537 25.08C34.6195 24.0191 34.4795 22.9416 34.3365 21.8807L33.9018 18.7975C33.8318 18.466 33.7793 18.4329 33.7501 18.6981C33.7179 18.9633 33.7297 19.328 33.7822 19.759C33.8201 20.1236 33.9193 20.8364 34.0769 21.8973C34.2344 22.9748 34.3511 23.8202 34.4299 24.4169C34.7303 26.7708 34.9813 29.2903 35.1855 31.9923C35.3898 34.7108 35.4539 37.6448 35.378 40.7943C35.3402 42.3359 35.2643 43.7615 35.1505 45.071C35.0105 46.6955 34.8413 48.0382 34.6458 49.1322C34.0214 52.5801 33.2395 55.0833 32.3059 56.6743C31.8625 57.4206 31.4569 57.9842 31.0864 58.365C30.7159 58.7463 30.3045 59.0779 29.8494 59.3432C29.6831 59.4592 29.5313 59.5424 29.3971 59.5752C29.3271 59.6086 29.2512 59.6414 29.1637 59.6584C29.0762 59.6912 29.0033 59.7246 28.9419 59.7744C28.9886 59.9068 29.1374 59.9402 29.3884 59.8734C29.6392 59.8072 29.8027 59.7574 29.8785 59.7246C30.0273 59.6584 30.1761 59.5916 30.322 59.509C30.4679 59.4258 30.6138 59.3268 30.7654 59.1939C31.0397 58.9783 31.314 58.7135 31.5911 58.4148C31.8683 58.1166 32.1337 57.7516 32.3847 57.3375C32.8077 56.6415 33.2308 55.6966 33.6567 54.4864C34.0827 53.2929 34.4474 51.801 34.7566 50.0273C34.9638 48.8338 35.1388 47.5243 35.2789 46.0822ZM26.6663 17.1896C26.5817 17.0073 26.5408 17.1731 26.5408 17.7035C26.5408 18.897 26.6342 21.4829 26.821 25.4612C27.0077 29.4395 27.1302 32.0089 27.1885 33.1526C27.2469 34.3627 27.3169 35.5728 27.3928 36.7663C27.4687 37.9763 27.5445 39.1367 27.6203 40.2638C27.6495 40.6949 27.7342 41.9215 27.8742 43.9438C28.0142 45.9661 28.0871 47.0436 28.0871 47.1762C28.0901 46.8281 28.0346 45.618 27.9209 43.546C27.8071 41.4739 27.7371 40.1479 27.7079 39.5677C27.5679 36.8989 27.4395 34.3296 27.3228 31.8597C27.2032 29.4064 27.0894 26.7873 26.9785 24.0357L26.7334 18.035C26.71 17.5377 26.6896 17.256 26.6663 17.1896ZM28.236 2.08862L28.3001 1.80682C28.2068 1.87313 28.0988 2.02231 27.9763 2.2378C27.8538 2.46987 27.7546 2.65221 27.6728 2.81797C27.5212 3.13292 27.3286 3.58049 27.0922 4.1441C26.853 4.7077 26.6809 5.27124 26.5759 5.81826C26.5 6.21614 26.4445 6.79631 26.4096 7.55879C26.3745 8.32133 26.3833 8.86835 26.4358 9.19985C26.4912 9.56451 26.5321 9.53136 26.5613 9.13354C26.6108 8.40422 26.6138 7.75773 26.57 7.19413C26.5263 6.63053 26.9172 5.32098 27.7458 3.29869C27.8275 3.09977 27.9091 2.91743 27.9909 2.73509C28.0726 2.55275 28.1542 2.33726 28.236 2.08862ZM41.6012 62.957C41.5253 60.2383 41.5078 57.8682 41.5516 55.8126C41.5953 53.7736 41.5486 50.6904 41.4145 46.5795C41.3561 44.9218 41.289 44.2588 41.2103 44.5903C41.1286 44.9218 41.0994 45.3031 41.1168 45.7672C41.1402 46.4303 41.1635 47.0602 41.1868 47.6569C41.2102 48.2536 41.2307 48.9001 41.2511 49.5963C41.3094 51.7844 41.324 53.9559 41.3007 56.1272C41.2744 58.2988 41.2803 60.3045 41.3211 62.1281C41.3327 62.8077 41.3678 63.421 41.4261 63.9512C41.4845 64.4819 41.5895 64.6143 41.747 64.3495C41.8404 64.2001 41.9747 63.8023 42.1526 63.1556C42.3277 62.5095 42.4706 62.0121 42.5786 61.6642C42.6253 61.5148 42.672 61.349 42.7128 61.1668C42.7536 61.001 42.8003 60.8183 42.8528 60.6525C42.9287 60.4539 43.092 59.8734 43.343 58.9291C43.5938 58.0006 43.7893 57.2877 43.9294 56.8237L44.9797 53.5912C45.0147 53.4918 45.041 53.3923 45.0584 53.2763C44.9592 53.3426 44.8105 53.6741 44.6062 54.2543C44.4021 54.8343 44.2562 55.2491 44.1686 55.4811C43.9177 56.2104 43.6697 56.9561 43.4189 57.7516C43.1679 58.5477 42.9228 59.277 42.6865 59.9402C42.5844 60.2383 42.5144 60.4539 42.4735 60.5863C42.3977 60.8353 42.2489 61.2828 42.033 61.9459C41.8141 62.6085 41.6712 62.9401 41.6012 62.957ZM36.2679 61.0672L36.23 61.0175C36.1425 60.8517 36.0229 59.5916 35.8712 57.2713C35.842 56.8401 35.7953 56.1442 35.7341 55.1495C35.6698 54.1714 35.6494 53.4255 35.6727 52.9282C35.6931 52.3978 35.7953 52.0662 35.982 51.9667C36.2271 51.8507 36.3234 51.2042 36.2767 50.0273C36.1162 46.3142 36.0549 42.9326 36.0929 39.9158C36.0987 39.1201 36.1162 38.2747 36.1396 37.363C36.1629 36.4679 36.1863 35.5893 36.2154 34.7605C36.2212 34.4953 36.2329 34.2798 36.2475 34.1472C36.2592 34.0146 36.2738 33.8157 36.2855 33.5173L36.4984 29.655C36.6501 27.4338 36.8222 25.2955 37.0148 23.2234C37.2074 21.1514 37.4146 19.0959 37.6362 17.0736C37.6654 16.8084 37.6975 16.4934 37.7384 16.1453C37.7792 15.8138 37.8084 15.4325 37.8288 15.0347C37.7501 14.9352 37.6829 14.8358 37.6305 14.7364C37.575 14.6369 37.5079 14.5209 37.432 14.4048C37.362 14.3219 37.2336 14.1728 37.0498 13.9738C36.866 13.7749 36.761 13.6257 36.7318 13.5263C36.6559 13.2942 36.6267 12.8964 36.6443 12.3328L36.7406 9.03407C36.7726 8.25502 36.7989 7.45932 36.8222 6.63053C36.8426 5.81826 36.8718 4.95632 36.9098 4.06121C36.9214 3.74625 36.9944 3.67994 37.1344 3.86228C37.2716 4.04463 37.3766 4.17726 37.4466 4.26009L38.3335 5.33755C38.3919 5.42044 38.4386 5.47018 38.4735 5.48676C38.5086 5.50334 38.5553 5.53649 38.6137 5.6028C38.8996 5.96747 39.2438 6.14982 39.6465 6.14982C40.0491 6.14982 40.3846 5.95089 40.6559 5.56965C40.7346 5.47018 40.8222 5.35413 40.9156 5.22156C41.0089 5.08894 41.0935 5.05578 41.1694 5.15525C41.2627 5.28782 41.4203 6.19956 41.6391 7.89035C41.858 9.58109 42.0067 10.6917 42.0826 11.2553C42.1701 11.935 42.2489 12.6312 42.3218 13.3273C42.3947 14.0236 42.4706 14.7198 42.5523 15.3994C42.5698 15.5817 42.5844 15.7144 42.6019 15.8138C42.6165 15.9132 42.634 16.0459 42.6544 16.2116L43.092 20.4718C43.1387 21.0022 43.1912 21.5161 43.2496 22.0465C43.3079 22.577 43.3721 23.1737 43.4363 23.8699L43.7544 27.3675C43.8127 28.1134 43.8768 28.8594 43.9469 29.5887C44.0169 30.3181 44.0694 31.0806 44.1074 31.8431C44.1336 31.8099 44.1686 31.7933 44.2153 31.7933C44.2591 31.7933 44.297 31.7602 44.332 31.7271C44.4282 31.6608 44.545 31.5282 44.6821 31.3624C44.8163 31.1966 44.933 31.1801 45.0264 31.2961C45.1168 31.4287 45.1868 32.1912 45.2394 33.5836C45.289 34.976 45.3357 36.0535 45.3794 36.8492C45.4261 37.7774 45.4494 38.4073 45.4465 38.772C45.4436 39.1367 45.3765 39.3853 45.2423 39.5014C45.1751 39.5677 45.0643 39.7169 44.9068 39.9489C44.7492 40.181 44.6558 40.297 44.6208 40.297C44.6296 40.5291 44.6384 40.7612 44.6441 41.0098C44.65 41.2585 44.6588 41.4905 44.6704 41.706C44.6763 41.8221 44.6792 41.9381 44.685 42.0375C44.688 42.1536 44.6937 42.2696 44.6996 42.3691L44.8017 45.0379C44.8133 45.502 44.8484 45.6843 44.9068 45.6014C44.9622 45.5352 45.0614 45.2368 45.2043 44.7063C45.3444 44.1759 45.4757 43.8278 45.5924 43.6454C45.639 43.9438 45.6945 44.6566 45.7587 45.7506C45.782 46.1816 45.8491 47.3088 45.9629 49.0991C46.0767 50.9058 46.1263 51.9833 46.1146 52.3149C46.0971 52.7293 45.9629 53.3094 45.712 54.0719C45.461 54.8343 45.3035 55.3153 45.2335 55.4975C45.1402 55.7628 45.0527 56.0282 44.968 56.3264C44.8805 56.6245 44.7959 56.9063 44.7084 57.1717C44.6617 57.2877 44.6354 57.3539 44.6266 57.3872L41.8959 65.6921C41.7092 66.2223 41.5224 66.637 41.3327 66.9352C41.1431 67.2334 41.0468 66.5041 41.0411 64.7139C41.0352 63.7526 41.0411 62.8241 41.0527 61.8961C41.0789 59.4756 41.0877 57.1881 41.0789 55.0663C41.0672 52.9448 41.0439 50.6904 41.006 48.2702C41.0001 47.9387 40.9885 47.5243 40.9739 46.9939C40.9593 46.48 40.9564 46.049 40.9681 45.7175C40.8456 45.7175 40.726 45.8501 40.6093 46.0988C40.4897 46.364 40.37 46.4303 40.2475 46.3308C40.335 48.6183 40.3991 50.077 40.4458 50.6738C40.4897 51.2706 40.3291 52.033 39.9644 52.9282L39.1738 54.7517C39.0921 54.9339 39.0484 55.0335 39.0425 55.0335L36.8018 60.1388C36.4896 60.8019 36.3116 61.117 36.2679 61.0672ZM40.0316 21.3669L39.9294 24.7485C39.9148 25.2789 39.9003 25.8259 39.8886 26.3895C39.874 26.9531 39.8624 27.5001 39.8506 28.0637C39.8332 28.8262 39.8128 29.9037 39.7924 31.2795C39.769 32.6719 39.7718 33.6499 39.7952 34.2135C39.8828 34.2964 40.0199 34.2964 40.2095 34.1969C40.3991 34.1141 40.5246 34.0809 40.583 34.1141L40.4634 30.8485C40.44 30.3181 40.4138 29.8042 40.3904 29.2738C40.3671 28.7433 40.3438 28.2129 40.3204 27.6493C40.3146 27.5167 40.2708 26.4889 40.1891 24.5495C40.1074 22.6101 40.0549 21.5492 40.0316 21.3669ZM36.8369 48.9664C36.8485 48.5023 36.8485 47.8061 36.8369 46.8778C36.8252 45.9496 36.8193 45.2036 36.8193 44.6566C36.796 38.656 36.901 33.7328 37.1344 29.8871C37.3679 26.0414 37.7762 21.7647 38.3627 17.0902C38.4094 16.7089 38.4444 16.4271 38.4678 16.2282C38.4911 16.0459 38.4823 15.7144 38.4444 15.2337C38.3568 15.101 38.2956 15.1508 38.2635 15.3828C38.2285 15.6149 38.1935 15.8967 38.1527 16.2282C37.5137 21.3006 37.0936 25.743 36.8893 29.539C36.6851 33.3516 36.6355 38.3907 36.7406 44.6897C36.7464 45.1207 36.7581 45.8667 36.7785 46.9441C36.7989 48.0216 36.8193 48.7012 36.8369 48.9664ZM36.9769 10.7912C37.0498 10.3934 37.0907 9.78003 37.1024 8.91808C37.1111 8.05608 37.1519 7.22729 37.2248 6.43159C37.257 6.05035 37.324 5.90115 37.4291 6.00062C37.9017 6.53106 38.2343 7.02835 38.4298 7.45932C38.6253 7.90693 39.0192 8.02292 39.6143 7.82404C39.6961 7.80746 39.7748 7.77431 39.8536 7.72457C39.9294 7.67484 40.0083 7.6251 40.087 7.55879C40.1336 7.52564 40.2124 7.45932 40.3291 7.34333C40.4458 7.22729 40.5187 7.17755 40.5479 7.17755C40.4254 6.99519 40.1775 6.99519 39.804 7.17755C39.4306 7.37643 38.9288 7.01177 38.3015 6.10009C37.8521 5.47018 37.5312 5.03921 37.3416 4.80711C37.1491 4.57508 37.0119 5.58623 36.9244 7.82404C36.8893 8.68599 36.8631 9.38221 36.8456 9.89607C36.8281 10.4099 36.8718 10.7083 36.9769 10.7912ZM48.8688 11.9681C48.9446 11.9681 49.1051 11.7029 49.3502 11.1724C49.5923 10.642 49.7615 10.2607 49.8578 10.0452L51.7426 5.868C51.8826 5.53649 52.043 5.18841 52.224 4.82369C52.5624 4.11095 52.7724 3.86228 52.8599 4.07779C52.9446 4.30983 53.0175 5.6028 53.0758 7.97319L53.283 18.1013C53.2946 18.9633 53.3093 19.7921 53.3268 20.621C53.3443 21.4498 53.3647 22.2785 53.3822 23.1074C53.4289 25.5772 53.4785 28.1134 53.5281 30.7159C53.5748 33.335 53.6302 35.8546 53.6915 38.3079C53.7556 41.1258 53.8052 42.5845 53.8344 42.684C53.8636 42.7835 54.0474 42.5017 54.38 41.8717C54.7447 41.1922 54.9402 40.8606 54.9665 40.8772C54.9927 40.8938 55.1006 41.3247 55.2873 42.1536L56.679 49.1322C56.7374 49.4306 56.8045 49.7621 56.8833 50.1434C56.9591 50.5246 57 50.8727 57 51.1877C57 51.5855 56.8686 51.9833 56.609 52.3812C56.3493 52.7956 56.1772 53.0608 56.0897 53.1934L52.5011 58.9291C52.3552 59.161 52.186 59.4258 51.9934 59.7246C51.8009 60.0228 51.6579 59.8242 51.5588 59.1113C51.4596 58.4481 51.3574 56.5419 51.2494 53.3923C51.1386 50.2428 51.0598 48.0547 51.0131 46.8447C50.9198 44.6068 50.8294 42.2696 50.7447 39.8163C50.6601 37.3796 50.5727 35.0423 50.4793 32.8046C50.4384 31.8762 50.4005 30.9646 50.3713 30.0363C50.3392 29.108 50.3042 28.1631 50.2692 27.2017C50.1409 24.0688 50.0562 22.378 50.0183 22.1294C49.9803 21.8807 49.7966 21.8476 49.464 22.0465C49.3502 22.1128 49.2568 22.146 49.1838 22.1626C49.143 22.1791 49.0963 22.2123 49.0467 22.262C48.9971 22.3117 48.9534 22.3449 48.9184 22.3449C48.895 22.8421 48.8921 23.2566 48.9038 23.5881C48.9155 23.9196 48.933 24.3506 48.9534 24.8811C48.9651 25.2955 48.9884 25.9254 49.0205 26.7542L49.2977 34.2135C49.3502 35.7717 49.426 37.6117 49.5223 39.7003C49.6157 41.8055 49.7032 43.5625 49.7791 44.9716C49.8082 45.5683 49.8432 46.1319 49.8811 46.6291C49.9162 47.1431 49.957 47.6735 50.0007 48.2371C50.1409 50.0936 50.2254 51.1048 50.2605 51.2374C50.2925 51.37 50.0942 51.917 49.6652 52.8785L48.8571 54.6189C48.577 55.2491 48.2765 55.8624 47.9614 56.4921C47.6463 57.1219 47.3517 57.7352 47.0774 58.365L45.7791 61.0837C45.3998 61.8464 45.1898 62.2277 45.146 62.2277H45.1198C45.0322 62.2107 44.9505 61.5646 44.8776 60.2881C44.8367 59.5752 44.7609 58.365 44.6529 56.6743C44.545 54.9837 44.4778 53.8399 44.4517 53.2597C44.4166 52.4972 44.437 52.0828 44.5187 51.9833C44.6004 51.8839 44.79 51.5523 45.0935 50.9722C45.2861 50.6075 45.4027 50.3588 45.4494 50.1931C45.4932 50.0439 45.5165 48.9996 45.5165 47.0436V22.9913C45.5165 22.5272 45.5106 22.0299 45.502 21.4829C45.4815 20.5878 45.4494 20.1402 45.4086 20.1402L45.2656 20.3557C45.1956 20.4552 45.0964 20.621 44.968 20.8198C44.8396 21.0188 44.7492 21.1183 44.7025 21.1183C44.6676 20.853 44.6529 20.6872 44.6529 20.6375C44.6529 19.5103 44.6676 17.5875 44.7025 14.8358C44.7376 12.1007 44.828 10.3934 44.9739 9.73029C45.076 9.26616 45.2306 8.91808 45.4377 8.68599C45.642 8.45389 45.8171 8.23844 45.96 8.07265L48.4312 5.13867C48.469 5.10552 48.5624 4.98947 48.7112 4.82369C48.8571 4.65797 48.933 4.77396 48.933 5.17183C48.933 5.66912 48.9184 6.53106 48.8921 7.74115C48.863 8.95124 48.8425 9.8795 48.8279 10.5094C48.8016 11.4874 48.8163 11.9681 48.8688 11.9681ZM50.5317 10.8575C50.4734 11.0067 50.4559 11.2387 50.4821 11.5537C50.4997 11.9018 50.5405 12.0013 50.6047 11.8521C50.736 11.5537 51.0774 10.7912 51.6259 9.53136C52.1743 8.28817 52.4807 7.84062 52.5449 8.20528C52.6091 8.58652 52.6703 10.4099 52.7316 13.6589C52.7899 16.9244 52.8337 19.0131 52.8571 19.9413C52.9329 23.2566 53.0058 26.5552 53.0817 29.8705C53.1546 33.1858 53.2305 36.4845 53.3064 39.7831C53.2421 35.407 53.1838 31.0143 53.1254 26.5718C53.0671 22.1294 52.9942 17.7201 52.9125 13.3439C52.895 12.598 52.8687 11.4542 52.8366 9.91265C52.8046 8.37106 52.7228 7.44275 52.5916 7.1444C52.4457 6.81289 52.113 7.24386 51.5937 8.43732C51.0745 9.63083 50.7214 10.4265 50.5317 10.8575ZM51.3312 44.7395C51.3137 44.408 51.2757 44.2919 51.2174 44.3582C51.1532 44.4743 51.1327 44.6897 51.1503 45.0047C51.2086 46.3308 51.3196 48.6018 51.4771 51.8342C51.6346 55.0663 51.8096 56.9895 52.0081 57.5858C52.1598 58.0832 52.4019 58.017 52.7375 57.4037C53.073 56.8073 53.3268 56.3428 53.5019 56.0112C53.887 55.3153 54.2721 54.6189 54.66 53.9228C55.0452 53.2265 55.4332 52.5137 55.8213 51.801C55.4245 52.3812 55.0306 52.9614 54.6396 53.525C54.2458 54.0885 53.8519 54.6521 53.4609 55.2157C53.3326 55.4149 53.0992 55.7628 52.7666 56.2602C52.434 56.7739 52.221 56.9233 52.1335 56.7241C51.9643 56.3926 51.8009 54.5693 51.6404 51.254C51.48 47.9387 51.3778 45.7672 51.3312 44.7395ZM45.8462 20.0574C45.8462 19.7092 45.8141 19.5269 45.7499 19.5269C45.6857 19.5269 45.6565 19.7092 45.6565 20.0574C45.6624 23.5549 45.6653 27.0359 45.6712 30.517C45.677 33.998 45.6916 37.4625 45.7208 40.9435C45.7324 42.7669 45.7441 44.5903 45.7587 46.4137C45.7704 48.2371 45.7849 50.0439 45.7995 51.8673C45.8053 50.0439 45.8141 48.2371 45.8228 46.4137C45.8316 44.5903 45.8404 42.7669 45.8491 40.9269C45.8608 37.4459 45.8667 33.9814 45.8608 30.5004C45.8549 27.0359 45.8491 23.5549 45.8462 20.0574ZM44.863 15.101C44.8513 15.4657 44.8776 15.6646 44.9418 15.7144C45.0031 15.7641 45.038 15.6149 45.0468 15.2502C45.0643 14.554 45.0847 13.6755 45.111 12.6478C45.1372 11.62 45.2131 10.9404 45.3386 10.642C45.461 10.3436 45.677 10.0287 45.9863 9.68056C46.2955 9.33248 46.5318 9.03407 46.6952 8.80203C46.9928 8.40422 47.2904 7.98977 47.5909 7.57537C47.8884 7.16097 48.189 6.74658 48.4895 6.33213C48.1715 6.61395 47.6172 7.07808 46.8295 7.74115C46.0416 8.40422 45.5194 9.03407 45.2656 9.66398C45.0906 10.095 44.9855 10.8741 44.9505 11.9681C44.9155 13.0787 44.8863 14.123 44.863 15.101Z" fill="black"/>
</svg>
